<svg xmlns="http://www.w3.org/2000/svg" viewBox="0 0 446.36 446.36"><defs><style>.cls-2{fill:#fff}</style></defs><g id="Слой_2" data-name="Слой 2"><g id="Слой_1-2" data-name="Слой 1"><rect width="446.36" height="446.36" rx="99.96" style="fill:#369"/><path class="cls-2" d="M363.85 276.09c0-.11 0-.21.06-.32s0-.21 0-.31V274c0-.07 0-.22-.05-.33s0-.18-.05-.27-.05-.17-.07-.26l-.09-.32a1.8 1.8 0 0 0-.08-.21c0-.11-.08-.22-.13-.33a1.24 1.24 0 0 0-.1-.2l-.15-.31-.14-.23a2.13 2.13 0 0 0-.16-.25l-.19-.26-.15-.19c-.08-.1-.17-.19-.25-.28l-.14-.14-.28-.25-.15-.14-.28-.21a1.53 1.53 0 0 0-.21-.14l-.24-.15-.28-.16-.21-.1-.35-.16h-.2l-.37-.12-.23-.06-.34-.07-.28-.05H87.48l-.28.05-.34.07-.23.06-.38.12h-.18l-.37.16-.19.09-.3.17-.23.14-.22.16-.26.19-.17.15-.27.24-.15.16c-.08.09-.16.17-.23.26l-.16.21-.19.24c-.06.09-.11.18-.16.27l-.14.22-.16.31-.09.2c0 .11-.09.22-.13.33a1.8 1.8 0 0 0-.08.21l-.09.32a2 2 0 0 0-.06.26l-.06.27c0 .11 0 .22-.05.33s0 .15 0 .23v1.54a3 3 0 0 0 .08.32 1.05 1.05 0 0 0 .06.24 2.29 2.29 0 0 0 .12.37.56.56 0 0 0 0 .12l.06.17a150.31 150.31 0 0 0 280.72 0l.07-.18c0-.05 0-.09.05-.13s.08-.24.11-.37a2.17 2.17 0 0 0 .27-.22zm-140.67 83.09a183.33 183.33 0 0 1-47.35-78.49h94.7a183.33 183.33 0 0 1-47.35 78.49zM97.37 280.69h65.95a195.45 195.45 0 0 0 44.65 80 138.42 138.42 0 0 1-110.6-80zm141 80a195.3 195.3 0 0 0 44.62-80h66a138.53 138.53 0 0 1-110.57 80zM82.51 170.19c0 .11-.05.22-.06.32s0 .21 0 .32v1.23a2 2 0 0 0 0 .23v.32l.06.28a1.83 1.83 0 0 0 .06.25l.09.32a1.8 1.8 0 0 0 .08.21 3.42 3.42 0 0 0 .13.34 1.86 1.86 0 0 0 .1.2l.15.31c.05.08.1.15.14.23s.1.17.16.25.13.17.2.26l.14.19.25.27.14.15.28.25.15.14.28.2.21.15.24.15.28.16.21.1c.12 0 .23.11.35.15h.07l.13.05.36.11.26.07.3.07.33.05h270.46a7.13 7.13 0 0 0 .94-.09h.13a5.26 5.26 0 0 0 1-.27h.14a3.49 3.49 0 0 0 .34-.15l.22-.1.28-.16.24-.15.21-.15a2.69 2.69 0 0 0 .27-.2l.16-.14.28-.25.14-.15.25-.27.15-.19.19-.25c.06-.08.11-.17.16-.25l.14-.23.15-.31a1.86 1.86 0 0 0 .1-.2c.05-.11.09-.22.13-.33s.06-.15.08-.22l.09-.31c0-.09.05-.17.07-.26s0-.18.05-.28 0-.21.05-.32 0-.15 0-.23v-1.55c0-.11-.05-.21-.07-.32a2.17 2.17 0 0 0-.07-.24 2.53 2.53 0 0 0-.12-.36.5.5 0 0 0 0-.13l-.06-.17a150.47 150.47 0 0 0-86.77-86.64C199.4 53.09 112.45 92 82.82 169.26a1.22 1.22 0 0 0-.07.17.5.5 0 0 0 0 .13 2.53 2.53 0 0 0-.12.36 2.17 2.17 0 0 0-.12.27zM223.18 87.1a183.31 183.31 0 0 1 47.35 78.5h-94.67a182.78 182.78 0 0 1 47.32-78.5zM349 165.6h-66a195.38 195.38 0 0 0-44.65-80 138.33 138.33 0 0 1 110.6 80zm-141.06-80a194.82 194.82 0 0 0-44.57 80h-66a138.54 138.54 0 0 1 110.56-80.01zM84.23 246.44l15.25-30.5 15.25 30.5a6 6 0 0 0 10.73 0l20.62-41.23a6 6 0 0 0-10.74-5.37l-15.25 30.5-15.25-30.5a6 6 0 0 0-10.73 0l-15.25 30.5-15.25-30.5a6 6 0 0 0-10.74 5.37l20.62 41.23a6 6 0 0 0 10.74 0zM259.05 199.84l-15.25 30.5-15.25-30.5a6 6 0 0 0-10.74 0l-15.25 30.5-15.25-30.5a6 6 0 0 0-10.73 5.37l20.62 41.23a6 6 0 0 0 10.73 0l15.25-30.5 15.25 30.5a6 6 0 0 0 10.73 0l20.62-41.23a6 6 0 1 0-10.73-5.37zM390.8 197.16a6 6 0 0 0-8.05 2.68l-15.25 30.5-15.25-30.5a6 6 0 0 0-10.73 0l-15.25 30.5-15.27-30.5a6 6 0 0 0-10.74 5.37l20.62 41.23a6 6 0 0 0 10.73 0l15.25-30.5 15.26 30.5a6 6 0 0 0 10.73 0l20.62-41.23a6 6 0 0 0-2.67-8.05z"/></g></g></svg>