<?xml version="1.0" encoding="iso-8859-1"?>
<!-- Generator: Adobe Illustrator 19.0.0, SVG Export Plug-In . SVG Version: 6.00 Build 0)  -->
<svg version="1.1" id="Capa_1" xmlns="http://www.w3.org/2000/svg" xmlns:xlink="http://www.w3.org/1999/xlink" x="0px" y="0px"
	 viewBox="0 0 512 512" style="enable-background:new 0 0 512 512;" xml:space="preserve">
<path style="fill:#FFFFFF;" d="M445.988,448.125v25.869c0,15.467,12.539,28.006,28.006,28.006l0,0
	C489.461,502,502,489.461,502,473.994V94c0-22.091-17.909-40-40-40h-78H113.674h-29.85c-22.091,0-40,17.909-40,40v354.125H445.988z"
	/>
<path style="fill:#C7EAFF;" d="M446,474v-25.852l-0.012-0.023H10V474c0,15.464,12.536,28,28,28h435.994l0,0
	C458.533,501.997,446,489.462,446,474z"/>
<path style="fill:#BAEE83;" d="M501.5,137h-457V94c0-22.091,17.909-40,40-40h377c22.091,0,40,17.909,40,40V137z"/>
<g>
	<path style="fill:#A5DDFF;" d="M226.245,370L226.245,370c-15.464,0-28-12.536-28-28l0,0c0-15.464,12.536-28,28-28l0,0
		c15.464,0,28,12.536,28,28l0,0C254.245,357.464,241.709,370,226.245,370z"/>
	<path style="fill:#A5DDFF;" d="M319.578,370L319.578,370c-15.464,0-28-12.536-28-28l0,0c0-15.464,12.536-28,28-28l0,0
		c15.464,0,28,12.536,28,28l0,0C347.578,357.464,335.042,370,319.578,370z"/>
</g>
<path style="fill:#FE6663;" d="M412.912,370L412.912,370c-15.464,0-28-12.536-28-28l0,0c0-15.464,12.536-28,28-28l0,0
	c15.464,0,28,12.536,28,28l0,0C440.912,357.464,428.376,370,412.912,370z"/>
<g>
	<path style="fill:#A5DDFF;" d="M132.912,266L132.912,266c-15.464,0-28-12.536-28-28l0,0c0-15.464,12.536-28,28-28l0,0
		c15.464,0,28,12.536,28,28l0,0C160.912,253.464,148.376,266,132.912,266z"/>
	<path style="fill:#A5DDFF;" d="M319.578,266L319.578,266c-15.464,0-28-12.536-28-28l0,0c0-15.464,12.536-28,28-28l0,0
		c15.464,0,28,12.536,28,28l0,0C347.578,253.464,335.042,266,319.578,266z"/>
	<path style="fill:#A5DDFF;" d="M226.245,266L226.245,266c-15.464,0-28-12.536-28-28l0,0c0-15.464,12.536-28,28-28l0,0
		c15.464,0,28,12.536,28,28l0,0C254.245,253.464,241.709,266,226.245,266z"/>
</g>
<g>
	<path style="fill:#FE6663;" d="M412.912,266L412.912,266c-15.464,0-28-12.536-28-28l0,0c0-15.464,12.536-28,28-28l0,0
		c15.464,0,28,12.536,28,28l0,0C440.912,253.464,428.376,266,412.912,266z"/>
	<circle style="fill:#FE6663;" cx="90.48" cy="376" r="72"/>
</g>
<g>
	<path style="fill:#FFFFFF;" d="M156.333,96.5c-11.046,0-20-8.954-20-20V30c0-11.046,8.954-20,20-20s20,8.954,20,20v46.5
		C176.333,87.546,167.379,96.5,156.333,96.5z"/>
	<path style="fill:#FFFFFF;" d="M384.333,96.5c-11.046,0-20-8.954-20-20V30c0-11.046,8.954-20,20-20s20,8.954,20,20v46.5
		C404.333,87.546,395.379,96.5,384.333,96.5z"/>
</g>
<path d="M462,44h-47.667V30c0-16.542-13.458-30-30-30s-30,13.458-30,30v14h-168V30c0-16.542-13.458-30-30-30s-30,13.458-30,30v14.37
	c-0.85-0.235-1.741-0.37-2.666-0.37H83.823c-27.57,0-50,22.43-50,50v170.333c0,5.523,4.478,10,10,10s10-4.477,10-10V147h360.51
	c5.522,0,10-4.477,10-10s-4.478-10-10-10H53.823V94c0-16.542,13.458-30,30-30h39.844c0.925,0,1.816-0.136,2.666-0.37V76.5
	c0,16.542,13.458,30,30,30s30-13.458,30-30V64h168v12.5c0,16.542,13.458,30,30,30s30-13.458,30-30V64H462c16.542,0,30,13.458,30,30
	v379.994c0,9.928-8.077,18.006-18.006,18.006s-18.006-8.078-18.006-18.006v-25.869c0-5.523-4.478-10-10-10H329.667
	c-5.522,0-10,4.477-10,10s4.478,10,10,10h106.321v15.869c0,6.511,1.648,12.643,4.545,18.006H38c-9.925,0-18-8.075-18-18v-15.875
	h223.825c5.522,0,10-4.477,10-10s-4.478-10-10-10h-99.916c17.474-15.049,28.57-37.309,28.57-62.125c0-45.215-36.785-82-82-82
	s-82,36.785-82,82c0,24.816,11.096,47.076,28.57,62.125H10c-5.522,0-10,4.477-10,10V474c0,20.953,17.047,38,38,38h435.994
	C494.95,512,512,494.951,512,473.994V94C512,66.43,489.57,44,462,44z M166.333,76.5c0,5.514-4.486,10-10,10s-10-4.486-10-10V30
	c0-5.514,4.486-10,10-10s10,4.486,10,10V76.5z M394.333,76.5c0,5.514-4.486,10-10,10s-10-4.486-10-10V30c0-5.514,4.486-10,10-10
	s10,4.486,10,10V76.5z M28.479,376c0-34.187,27.813-62,62-62s62,27.813,62,62s-27.813,62-62,62S28.479,410.187,28.479,376z"/>
<path d="M461.24,147c2.63,0,5.21-1.07,7.069-2.93c1.86-1.86,2.931-4.44,2.931-7.07s-1.07-5.21-2.931-7.07
	c-1.859-1.86-4.439-2.93-7.069-2.93c-2.631,0-5.21,1.07-7.07,2.93c-1.86,1.86-2.93,4.44-2.93,7.07s1.069,5.21,2.93,7.07
	S458.609,147,461.24,147z"/>
<path d="M284.51,441.05c-1.86,1.87-2.93,4.44-2.93,7.07c0,2.64,1.069,5.21,2.93,7.08c1.86,1.86,4.44,2.92,7.07,2.92
	s5.21-1.06,7.069-2.92c1.86-1.87,2.931-4.45,2.931-7.08c0-2.63-1.07-5.2-2.931-7.07c-1.859-1.86-4.439-2.92-7.069-2.92
	S286.37,439.19,284.51,441.05z"/>
<path d="M226.245,380c20.953,0,38-17.047,38-38s-17.047-38-38-38s-38,17.047-38,38S205.292,380,226.245,380z M226.245,324
	c9.925,0,18,8.075,18,18s-8.075,18-18,18s-18-8.075-18-18S216.32,324,226.245,324z"/>
<path d="M319.578,380c20.953,0,38-17.047,38-38s-17.047-38-38-38s-38,17.047-38,38S298.625,380,319.578,380z M319.578,324
	c9.925,0,18,8.075,18,18s-8.075,18-18,18s-18-8.075-18-18S309.653,324,319.578,324z"/>
<path d="M412.912,380c20.953,0,38-17.047,38-38s-17.047-38-38-38s-38,17.047-38,38S391.959,380,412.912,380z M412.912,324
	c9.925,0,18,8.075,18,18s-8.075,18-18,18s-18-8.075-18-18S402.987,324,412.912,324z"/>
<path d="M170.912,238c0-20.953-17.047-38-38-38s-38,17.047-38,38s17.047,38,38,38S170.912,258.953,170.912,238z M114.912,238
	c0-9.925,8.075-18,18-18s18,8.075,18,18s-8.075,18-18,18S114.912,247.925,114.912,238z"/>
<path d="M319.578,276c20.953,0,38-17.047,38-38s-17.047-38-38-38s-38,17.047-38,38S298.625,276,319.578,276z M319.578,220
	c9.925,0,18,8.075,18,18s-8.075,18-18,18s-18-8.075-18-18S309.653,220,319.578,220z"/>
<path d="M412.912,276c20.953,0,38-17.047,38-38s-17.047-38-38-38s-38,17.047-38,38S391.959,276,412.912,276z M412.912,220
	c9.925,0,18,8.075,18,18s-8.075,18-18,18s-18-8.075-18-18S402.987,220,412.912,220z"/>
<path d="M226.245,276c20.953,0,38-17.047,38-38s-17.047-38-38-38s-38,17.047-38,38S205.292,276,226.245,276z M226.245,220
	c9.925,0,18,8.075,18,18s-8.075,18-18,18s-18-8.075-18-18S216.32,220,226.245,220z"/>
<path d="M72.324,405.409c1.876,1.875,4.419,2.929,7.071,2.929s5.195-1.054,7.071-2.929l39.638-39.638
	c3.905-3.905,3.905-10.237,0-14.142c-3.906-3.905-10.236-3.905-14.143,0l-32.566,32.567l-11.129-11.129
	c-3.906-3.905-10.236-3.905-14.143,0c-3.905,3.905-3.905,10.237,0,14.143L72.324,405.409z"/>
<g>
</g>
<g>
</g>
<g>
</g>
<g>
</g>
<g>
</g>
<g>
</g>
<g>
</g>
<g>
</g>
<g>
</g>
<g>
</g>
<g>
</g>
<g>
</g>
<g>
</g>
<g>
</g>
<g>
</g>
</svg>
