<?xml version="1.0" encoding="utf-8"?>
<!-- Generator: Adobe Illustrator 23.0.4, SVG Export Plug-In . SVG Version: 6.00 Build 0)  -->
<svg version="1.1" id="Capa_1" xmlns="http://www.w3.org/2000/svg" xmlns:xlink="http://www.w3.org/1999/xlink" x="0px" y="0px"
	 viewBox="0 0 30 30" style="enable-background:new 0 0 30 30;" xml:space="preserve">
<style type="text/css">
	.st0{fill:#FFFFFF;}
</style>
<path class="st0" d="M4.3,30c0-2.2,0-4.2,0-6.1c-0.1-0.1-0.2-0.2-0.2-0.2C1,22.9,0,21.5,0,18c0-4.3,0-8.6,0-12.8C0,1.9,1.7,0,4.7,0
	c6.9,0,13.8,0,20.8,0C28.3,0,30,1.9,30,5.1c0,3.9,0,7.8,0,11.6c0,4.4-2.2,6.9-6.2,7c-3.6,0-7.2,0-10.8,0c-0.8,0-1.4,0.2-2,0.7
	C8.8,26.3,6.6,28,4.3,30z"/>
<g>
	<path d="M14.3,13.3c-2.3,0-4.7,0-7,0c-0.7,0-1.3-0.2-1.4-0.9c-0.1-0.5,0-1.1,0.3-1.4c0.2-0.3,0.8-0.5,1.2-0.5c4.6,0,9.2,0,13.7,0
		c1.1,0,1.8,0.5,1.8,1.4c0,0.9-0.7,1.4-1.8,1.5C18.8,13.3,16.5,13.3,14.3,13.3C14.3,13.3,14.3,13.3,14.3,13.3z"/>
	<path d="M14.3,7.6c-2.3,0-4.7,0-7,0C6.6,7.6,6,7.3,5.9,6.6c-0.1-0.5,0-1.1,0.3-1.4c0.2-0.3,0.8-0.5,1.2-0.5c4.6,0,9.2,0,13.7,0
		c1.1,0,1.8,0.5,1.8,1.4c0,0.9-0.7,1.4-1.8,1.5C18.8,7.6,16.5,7.6,14.3,7.6C14.3,7.6,14.3,7.6,14.3,7.6z"/>
	<path d="M12.9,19c-1.8,0-3.6,0-5.4,0c-1.1,0-1.8-0.6-1.8-1.4c0-0.9,0.6-1.4,1.8-1.4c3.6,0,7.1,0,10.7,0c1.2,0,1.8,0.5,1.8,1.5
		c0,0.9-0.6,1.4-1.8,1.4C16.4,19,14.7,19,12.9,19z"/>
</g>
</svg>
