<?xml version="1.0" encoding="utf-8"?>
<!-- Generator: Adobe Illustrator 23.0.4, SVG Export Plug-In . SVG Version: 6.00 Build 0)  -->
<svg version="1.1" id="Capa_1" xmlns="http://www.w3.org/2000/svg" xmlns:xlink="http://www.w3.org/1999/xlink" x="0px" y="0px"
	 viewBox="0 0 30 30" style="enable-background:new 0 0 30 30;" xml:space="preserve">
<style type="text/css">
	.st0{fill:#FFFFFF;}
</style>
<path class="st0" d="M25.5,0c-7,0-13.9,0-20.8,0C1.7,0,0,1.9,0,5.2C0,9.4,0,13.7,0,18c0,3.5,1,4.9,4.1,5.7c0,0,0.1,0.1,0.2,0.2
	c0,1.9,0,3.9,0,6.1c2.3-2,4.5-3.7,6.7-5.6c0.6-0.5,1.2-0.7,2-0.7c3.6,0,7.2,0,10.8,0c4-0.1,6.2-2.6,6.2-7c0-3.8,0-7.7,0-11.6
	C30,1.9,28.3,0,25.5,0z M18.2,19.1C16.4,19,14.7,19,12.9,19c-1.8,0-3.6,0-5.4,0c-1.1,0-1.8-0.6-1.8-1.4c0-0.9,0.6-1.4,1.8-1.4
	c3.6,0,7.1,0,10.7,0c1.2,0,1.8,0.5,1.8,1.5C20,18.6,19.4,19.1,18.2,19.1z M21.1,13.4c-2.3-0.1-4.6-0.1-6.8-0.1c-2.3,0-4.7,0-7,0
	c-0.7,0-1.3-0.2-1.4-0.9c-0.1-0.5,0-1.1,0.3-1.4c0.2-0.3,0.8-0.5,1.2-0.5c4.6,0,9.2,0,13.7,0c1.1,0,1.8,0.5,1.8,1.4
	C22.9,12.8,22.2,13.3,21.1,13.4z M21.1,7.6c-2.3,0-4.6,0-6.8,0c-2.3,0-4.7,0-7,0c-0.7,0-1.3-0.3-1.4-1c-0.1-0.5,0-1.1,0.3-1.4
	C6.4,4.9,7,4.7,7.4,4.7c4.6,0,9.2,0,13.7,0c1.1,0,1.8,0.5,1.8,1.4C22.9,7,22.2,7.5,21.1,7.6z"/>
</svg>
