<?xml version="1.0" encoding="iso-8859-1"?>
<!-- Generator: Adobe Illustrator 19.0.0, SVG Export Plug-In . SVG Version: 6.00 Build 0)  -->
<svg version="1.1" id="Capa_1" xmlns="http://www.w3.org/2000/svg" xmlns:xlink="http://www.w3.org/1999/xlink" x="0px" y="0px"
	 viewBox="0 0 512 512" style="enable-background:new 0 0 512 512;" xml:space="preserve">
<path style="fill:#58BFFF;" d="M346.777,502H165.223v-20.166c0-11.138,9.029-20.166,20.166-20.166h141.221
	c11.138,0,20.166,9.029,20.166,20.166L346.777,502L346.777,502z"/>
<path style="fill:#5CC1FF;" d="M256,345.991L256,345.991c-57.436,0-103.997-46.561-103.997-103.997V113.997
	C152.003,56.56,198.564,10,256,10l0,0c57.436,0,103.997,46.561,103.997,103.997v127.997C359.997,299.43,313.436,345.991,256,345.991
	z"/>
<path style="fill:#ECF8FF;" d="M256,10L256,10c-57.436,0-103.997,46.561-103.997,103.997v62.51h207.994v-62.51
	C359.997,56.56,313.436,10,256,10z"/>
<path d="M256,355.99c62.858,0,113.997-51.14,113.997-113.997V113.997C369.997,51.139,318.858,0,256,0
	S142.003,51.139,142.003,113.997v127.997C142.003,304.852,193.142,355.99,256,355.99z M256,19.999
	c42.825,0,79.049,28.788,90.346,68.026h-22.681c-5.523,0-10,4.477-10,10s4.477,10,10,10h26.137c0.124,1.975,0.195,3.965,0.195,5.972
	v14.014h-26.332c-5.523,0-10,4.477-10,10s4.477,10,10,10h26.332v19.985H162.002V148.01h26.332c5.523,0,10-4.477,10-10
	s-4.477-10-10-10h-26.332v-14.014c0-2.006,0.071-3.996,0.195-5.972h26.137c5.523,0,10-4.477,10-10s-4.477-10-10-10h-22.681
	C176.951,48.788,213.175,19.999,256,19.999z M162.003,187.995h187.995v28.013H251.5c-5.523,0-10,4.477-10,10s4.477,10,10,10h98.497
	v5.986c0,51.831-42.167,93.997-93.997,93.997s-93.997-42.168-93.997-93.997L162.003,187.995L162.003,187.995z"/>
<path d="M212.001,236.008c2.63,0,5.21-1.07,7.07-2.93s2.93-4.44,2.93-7.07c0-2.63-1.07-5.21-2.93-7.07
	c-1.86-1.86-4.44-2.93-7.07-2.93c-2.63,0-5.21,1.07-7.07,2.93c-1.86,1.86-2.93,4.44-2.93,7.07c0,2.63,1.07,5.21,2.93,7.07
	C206.791,234.938,209.371,236.008,212.001,236.008z"/>
<path d="M399.996,206.675c-5.523,0-10,4.477-10,10v25.318c0,73.885-60.11,133.996-133.996,133.996s-133.996-60.11-133.996-133.996
	v-63.998c0-5.523-4.477-10-10-10s-10,4.477-10,10v63.998c0,81.553,63.726,148.491,143.996,153.662v56.013h-60.61
	c-16.634,0-30.166,13.532-30.166,30.165V502c0,5.522,4.477,10,10,10h181.553c5.523,0,10-4.478,10-10v-20.166
	c0-16.634-13.533-30.165-30.166-30.165H266v-56.013c80.27-5.171,143.996-72.109,143.996-153.662v-25.318
	C409.996,211.152,405.519,206.675,399.996,206.675z M336.777,481.834v10.167H175.223v-10.167c0-5.605,4.561-10.166,10.167-10.166
	h141.221C332.216,471.668,336.777,476.229,336.777,481.834z"/>
<path d="M399.996,187.999c2.63,0,5.21-1.07,7.07-2.93c1.86-1.86,2.93-4.44,2.93-7.07c0-2.64-1.07-5.22-2.93-7.07
	c-1.86-1.87-4.44-2.93-7.07-2.93c-2.63,0-5.21,1.06-7.07,2.93c-1.86,1.86-2.93,4.43-2.93,7.07c0,2.63,1.07,5.2,2.93,7.07
	C394.786,186.929,397.366,187.999,399.996,187.999z"/>
<g>
</g>
<g>
</g>
<g>
</g>
<g>
</g>
<g>
</g>
<g>
</g>
<g>
</g>
<g>
</g>
<g>
</g>
<g>
</g>
<g>
</g>
<g>
</g>
<g>
</g>
<g>
</g>
<g>
</g>
</svg>
