<svg xmlns="http://www.w3.org/2000/svg" viewBox="0 0 48 48"><defs><style>.cls-1{fill:#283d5b;}.cls-2{fill:#fff;}</style></defs><title>avatarDefault</title><g id="Layer_2" data-name="Layer 2"><g id="Orders"><circle class="cls-1" cx="24" cy="24" r="24"/><path class="cls-2" d="M37.06,42c-.31.23-.62.44-.94.65l-.43.28q-.61.38-1.26.72l-.28.15a23.22,23.22,0,0,1-3,1.29l-.11,0c-.55.19-1.1.34-1.66.49h0c-.56.14-1.14.25-1.71.35h-.05c-.54.08-1.09.15-1.63.2l-.3,0c-.54,0-1.08.06-1.63.06s-1.1,0-1.65-.07l-.29,0c-.55,0-1.1-.11-1.65-.2h-.07a23.16,23.16,0,0,1-3.4-.85l-.1,0c-.55-.18-1.09-.39-1.62-.62h0c-.51-.22-1-.46-1.49-.71l-.19-.1c-.45-.24-.89-.5-1.32-.76-.12-.09-.25-.17-.38-.25-.39-.26-.78-.53-1.16-.82l-.12-.09.08,0,6.91-3.77a3.69,3.69,0,0,0,1.92-3.24V31.52l-.2-.25a14.42,14.42,0,0,1-2.62-5.42l-.08-.35-.3-.19a1.43,1.43,0,0,1-.67-1.21V21a1.46,1.46,0,0,1,.48-1.07l.29-.26v-5a5.31,5.31,0,0,1,1.22-3.8C18.84,9.46,21,8.73,24,8.73s5.15.72,6.41,2.15a5.35,5.35,0,0,1,1.24,3.82v5l.29.26A1.42,1.42,0,0,1,32.41,21v3.1a1.44,1.44,0,0,1-1,1.37l-.43.14-.14.43a16.23,16.23,0,0,1-2.18,4.39,9.7,9.7,0,0,1-.65.83l-.21.24v3.23a3.68,3.68,0,0,0,2,3.31l7.39,3.69.14.07-.28.2Z"/></g></g></svg>