<svg xmlns="http://www.w3.org/2000/svg" viewBox="0 0 12 12"><defs><style>.cls-1{fill:#8a919a;}.cls-2{fill:#fff;}.cls-3{fill:#369;}</style></defs><title>checkBox2</title><g id="Layer_2" data-name="Layer 2"><g id="ticketWindow"><rect class="cls-1" width="12" height="12" rx="1" ry="1"/><rect class="cls-2" x="1" y="1" width="10" height="10"/><path class="cls-3" d="M9.36,3A.67.67,0,0,0,9,2.92a.72.72,0,0,0-.59.31l-2.79,4L3.5,4.84a.71.71,0,0,0-1,0,.7.7,0,0,0,0,1L5.08,8.76l.06.07.06.07,0,0,0,.05A.59.59,0,0,0,5.42,9l0,0,.21,0h0a.7.7,0,0,0,.52-.22.47.47,0,0,0,.06-.09h0L9.56,4A.71.71,0,0,0,9.36,3Z"/></g></g></svg>