<?xml version="1.0" encoding="utf-8"?>
<!-- Generator: Adobe Illustrator 23.0.6, SVG Export Plug-In . SVG Version: 6.00 Build 0)  -->
<svg version="1.1" id="Слой_1" xmlns="http://www.w3.org/2000/svg" xmlns:xlink="http://www.w3.org/1999/xlink" x="0px" y="0px"
	 viewBox="0 0 24 24" style="enable-background:new 0 0 24 24;" xml:space="preserve">
<style type="text/css">
	.st0{fill:#80BFFF;}
	.st1{fill:#283D5B;}
</style>
<title>inQueue</title>
<g id="Layer_2">
	<g id="Jobs">
		<g id="jobsTable">
			<circle class="st0" cx="12" cy="12" r="12"/>
			<path class="st1" d="M9.3,9h5.3c0.4,0,0.6,0.4,0.6,0.7c0,0.3-0.3,0.5-0.6,0.6H9.3C9,10.3,8.7,10,8.7,9.6C8.8,9.3,9,9,9.3,9z"/>
			<path class="st1" d="M9.3,11.7h5.3c0.4,0,0.6,0.4,0.6,0.7c0,0.3-0.3,0.5-0.6,0.6H9.3c-0.4,0-0.6-0.4-0.6-0.7
				C8.8,11.9,9,11.7,9.3,11.7z"/>
			<path class="st1" d="M9.3,6.3h5.3c0.4,0,0.7,0.3,0.7,0.7S15,7.7,14.7,7.7H9.3C9,7.7,8.7,7.4,8.7,7S9,6.3,9.3,6.3z"/>
			<path class="st1" d="M18,7c0-0.4-0.2-0.7-0.6-0.7c-0.4,0-0.7,0.2-0.7,0.6c0,0.1,0,0.1,0,0.2v6.7h-1.3c-0.7,0-1.3,0.6-1.3,1.3
				c0,0.7-0.6,1.3-1.3,1.3h-1.3c-0.7,0-1.3-0.6-1.3-1.3c0-0.7-0.6-1.3-1.3-1.3H7.3V7c0-0.4-0.2-0.7-0.6-0.7C6.4,6.2,6,6.5,6,6.8
				C6,6.9,6,6.9,6,7v9.3c0,0.7,0.6,1.3,1.3,1.3h9.3c0.7,0,1.3-0.6,1.3-1.3V7z"/>
		</g>
	</g>
</g>
</svg>
