<?xml version="1.0" encoding="UTF-8"?>
<svg width="82px" height="70px" viewBox="0 0 82 70" version="1.1" xmlns="http://www.w3.org/2000/svg" xmlns:xlink="http://www.w3.org/1999/xlink">
    <!-- Generator: Sketch 59.1 (86144) - https://sketch.com -->
    <title>Logo</title>
    <desc>Created with Sketch.</desc>
    <defs>
        <path d="M21.3607357,39.6668956 L26.3888889,39.6668956 L26.3888889,42.5 L18.4722222,42.5 L18.4722222,27.2222222 L21.3607357,27.2222222 L21.3607357,39.6668956 Z M37.7777778,35.3175134 C37.7777778,36.8204175 37.5624694,38.1504324 37.1318463,39.307598 C36.7012232,40.4647637 36.089366,41.3555561 35.2962563,41.9800022 C34.5031467,42.6044483 33.5996693,42.9166667 32.5857971,42.9166667 C31.571925,42.9166667 30.6725358,42.615032 29.8876025,42.0117536 C29.1026692,41.4084751 28.490812,40.5459058 28.0520125,39.4240196 C27.613213,38.3021334 27.3829148,37.0144532 27.3611111,35.5609403 L27.3611111,34.6930704 C27.3611111,33.1831104 27.5750567,31.8513315 28.0029544,30.6976939 C28.430852,29.5440562 29.044072,28.6532637 29.8426326,28.0252897 C30.6411932,27.3973156 31.5501214,27.0833333 32.5694444,27.0833333 C33.5778657,27.0833333 34.4772549,27.3937877 35.2676391,28.0147059 C36.0580233,28.635624 36.672606,29.5193607 37.1114055,30.6659425 C37.550205,31.8125243 37.7723269,33.1266637 37.7777778,34.6084002 L37.7777778,35.3175134 Z M34.8611111,34.5284818 C34.8611111,33.000843 34.6633204,31.8410517 34.2677331,31.0490731 C33.8721458,30.2570945 33.3060553,29.8611111 32.5694444,29.8611111 C31.1289611,29.8611111 30.3678079,31.2549726 30.2859623,34.0427373 L30.2777778,35.1726211 C30.2777778,36.6791405 30.4714762,37.8371718 30.858879,38.64675 C31.2462817,39.4563281 31.8219208,39.8611111 32.5858135,39.8611111 C33.3115116,39.8611111 33.8707818,39.4633678 34.2636409,38.6678693 C34.6565,37.8723708 34.8556547,36.7284188 34.8611111,35.2359791 L34.8611111,34.5284818 Z M44.8123862,27.0833333 C46.2987324,27.0833333 47.4530924,27.5222624 48.2755009,28.4001336 C49.0979094,29.2780048 49.5774128,30.5877409 49.7140255,32.329381 L46.9435337,32.329381 C46.8451726,31.4691377 46.6320599,30.8556947 46.3041894,30.4890336 C45.9763189,30.1223725 45.5118427,29.9390448 44.9107468,29.9390448 C44.1894317,29.9390448 43.6320603,30.3339046 43.2386157,31.1236362 C42.8451711,31.9133677 42.6457195,33.0415387 42.640255,34.508183 L42.640255,35.4389334 C42.640255,36.9760895 42.8438049,38.130702 43.2509107,38.9028056 C43.6580166,39.6749092 44.2987206,40.0609552 45.1730419,40.0609552 C45.9216795,40.0609552 46.479051,39.8458976 46.845173,39.415776 L46.845173,37.0254398 L44.845173,37.0254398 L44.845173,34.4764529 L49.7222222,34.4764529 L49.7222222,40.8013249 C49.2795971,41.4359306 48.6320626,41.9471331 47.7795993,42.3349477 C46.927136,42.7227623 45.9927191,42.9166667 44.9763206,42.9166667 C43.4134712,42.9166667 42.1648498,42.2996981 41.2304189,41.0657426 C40.295988,39.831787 39.795993,38.1148518 39.7304189,35.9148853 L39.7222222,34.58222 C39.7222222,33.0662175 39.9298704,31.7423793 40.345173,30.6106658 C40.7604757,29.4789523 41.354732,28.6081453 42.1279599,27.9982187 C42.9011878,27.3882921 43.7959876,27.0833333 44.8123862,27.0833333 Z M57.0138889,27.0833333 C58.0223101,27.0833333 58.9216993,27.3937877 59.7120836,28.0147059 C60.5024678,28.635624 61.1170504,29.5193607 61.5558499,30.6659425 C61.9946494,31.8125243 62.2167713,33.1266637 62.2222222,34.6084002 L62.2222222,35.3175134 C62.2222222,36.8204175 62.0069139,38.1504324 61.5762908,39.307598 C61.1456677,40.4647637 60.5338104,41.3555561 59.7407008,41.9800022 C58.9475911,42.6044483 58.0441137,42.9166667 57.0302416,42.9166667 C56.0163694,42.9166667 55.1169802,42.615032 54.3320469,42.0117536 C53.5471136,41.4084751 52.9352564,40.5459058 52.4964569,39.4240196 C52.0576574,38.3021334 51.8273593,37.0144532 51.8055556,35.5609403 L51.8055556,34.6930704 C51.8055556,33.1831104 52.0195012,31.8513315 52.4473988,30.6976939 C52.8752965,29.5440562 53.4885164,28.6532637 54.287077,28.0252897 C55.0856376,27.3973156 55.9945658,27.0833333 57.0138889,27.0833333 Z M57.0138889,29.8611111 C55.5734055,29.8611111 54.8122524,31.2549726 54.7304067,34.0427373 L54.7304067,34.0427373 L54.7222222,35.1726211 C54.7222222,36.6791405 54.9159207,37.8371718 55.3033234,38.64675 C55.6907261,39.4563281 56.2663652,39.8611111 57.0302579,39.8611111 C57.755956,39.8611111 58.3152262,39.4633678 58.7080853,38.6678693 C59.1009444,37.8723708 59.3000992,36.7284188 59.3055556,35.2359791 L59.3055556,35.2359791 L59.3055556,34.5284818 C59.3055556,33.000843 59.1077649,31.8410517 58.7121776,31.0490731 C58.3165903,30.2570945 57.7504997,29.8611111 57.0138889,29.8611111 Z" id="path-1"></path>
    </defs>
    <g id="Page-1" stroke="none" stroke-width="1" fill="none" fill-rule="evenodd">
        <g id="Desktop" transform="translate(-15.000000, -15.000000)">
            <g id="Logo" transform="translate(15.000000, 15.000000)">
                <path d="M9.56317829,27.0679553 L2.60559919,27.5255729 C1.50341116,27.5980666 0.668678979,28.5503343 0.741172671,29.6525223 C0.752721501,29.8281097 0.787392568,30.0014052 0.84428787,30.1679202 L2.07406765,33.7671068 C3.42582985,37.7232983 3.56349543,41.9933648 2.46936819,46.028411 L1.2889768,50.3815919 C0.999904712,51.4476647 1.6297882,52.5462266 2.69586095,52.8352987 C2.91402818,52.8944561 3.14064544,52.9162005 3.36608105,52.8996077 L13.2042107,52.1754923 L9.56317829,27.0679553 Z" id="Path-2" fill="#232322"></path>
                <path d="M72.3910324,27.0679553 L79.3486115,27.5255729 C80.4507996,27.5980666 81.2855318,28.5503343 81.2130381,29.6525223 C81.2014892,29.8281097 81.1668182,30.0014052 81.1099229,30.1679202 L79.8801431,33.7671068 C78.5283809,37.7232983 78.3907153,41.9933648 79.4848425,46.028411 L80.6652339,50.3815919 C80.954306,51.4476647 80.3244225,52.5462266 79.2583498,52.8352987 C79.0401826,52.8944561 78.8135653,52.9162005 78.5881297,52.8996077 L68.75,52.1754923 L72.3910324,27.0679553 Z" id="Path-2" fill="#232322"></path>
                <g id="Group-22" transform="translate(5.416667, 0.000000)">
                    <path d="M35,0 C54.3299662,0 70,15.6700338 70,35 C70,54.3299662 54.3299662,70 35,70 C15.6700338,70 0,54.3299662 0,35 C0,15.6700338 15.6700338,0 35,0 Z M35,8.33333333 C20.2724067,8.33333333 8.33333333,20.2724067 8.33333333,35 C8.33333333,49.7275933 20.2724067,61.6666667 35,61.6666667 C49.7275933,61.6666667 61.6666667,49.7275933 61.6666667,35 C61.6666667,20.2724067 49.7275933,8.33333333 35,8.33333333 Z" id="Combined-Shape" fill="#FE831E"></path>
                    <circle id="Oval" fill="#FE841F" cx="35" cy="35" r="23.4722222"></circle>
                </g>
                <path d="M73.157429,22.605743 L73.2692613,22.901528 C74.658237,26.6719556 75.4166667,30.7474074 75.4166667,35 C75.4166667,40.359351 74.2120964,45.4373595 72.0589264,49.9780551 C50.0173568,47.4339795 29.0786967,47.8341499 8.79314154,50.0168146 C6.62831172,45.467138 5.41666667,40.3750664 5.41666667,35 C5.41666667,30.6405641 6.21368506,26.4672817 7.66995513,22.6179197 L6.11111111,22.7777778 C28.6974642,20.4138475 51.038839,20.4283255 73.157429,22.605743 Z" id="Path" fill="#232322"></path>
                <g id="LOGO" fill-rule="nonzero">
                    <use fill="#000000" xlink:href="#path-1"></use>
                    <use fill="#FFFFFF" xlink:href="#path-1"></use>
                </g>
            </g>
        </g>
    </g>
</svg>