<svg xmlns="http://www.w3.org/2000/svg" viewBox="0 0 20 20"><defs><style>.cls-1{fill:#ccc;}.cls-2{fill:#f5f5f5;}</style></defs><title>ping</title><g id="Layer_2" data-name="Layer 2"><g id="ServerList"><circle class="cls-1" cx="10" cy="10" r="10"/><path class="cls-2" d="M7.4,11.23l-.06.07a.61.61,0,1,0,.93.79h0a2.45,2.45,0,0,1,3.47,0,.61.61,0,0,0,.87-.86A3.68,3.68,0,0,0,7.4,11.23Z"/><path class="cls-2" d="M5.67,9.49a.61.61,0,0,0,.86.87h0a4.91,4.91,0,0,1,6.94,0,.61.61,0,0,0,.86-.87A6.14,6.14,0,0,0,5.67,9.49Z"/><path class="cls-2" d="M16.08,7.76a8.59,8.59,0,0,0-12.14,0l-.13.13a.62.62,0,0,0,1,.73h0a7.36,7.36,0,0,1,10.41,0,.47.47,0,0,0,.1.1.62.62,0,0,0,.77-1Z"/><path class="cls-2" d="M10,12.91a.92.92,0,1,0,.92.92A.92.92,0,0,0,10,12.91Z"/></g></g></svg>