<svg xmlns="http://www.w3.org/2000/svg" viewBox="0 0 131.91 22.73"><defs><style>.cls-1{fill:#cce5ff;}</style></defs><title>reproPark</title><g id="Layer_2" data-name="Layer 2"><g id="Orders"><g id="Orders-2" data-name="Orders"><path class="cls-1" d="M30.39,18a.68.68,0,0,1-.53-.22l-4.93-7-1.59-.23v6.82a.65.65,0,0,1-.6.6h-2.2a.65.65,0,0,1-.61-.6V1a.64.64,0,0,1,.53-.61c4.7-.61,7.5-.46,9.32.76A4.63,4.63,0,0,1,31.9,5.23a5.06,5.06,0,0,1-3.41,4.92l.23.15.15.16L33.42,17a.68.68,0,0,1-.15.84.51.51,0,0,1-.31.07ZM24.78,8a4.62,4.62,0,0,0,2.65-.69,2.22,2.22,0,0,0,.91-2,2.13,2.13,0,0,0-.75-1.66A3.23,3.23,0,0,0,25.31,3h-.68C24.4,3,23.57,3,23.42,3V8h1.36Z"/><path class="cls-1" d="M39.78,18.26a8.78,8.78,0,0,1-2.8-.45,5,5,0,0,1-2-1.44,5.62,5.62,0,0,1-1.13-2.2,11.16,11.16,0,0,1-.38-2.73,6.68,6.68,0,0,1,1.67-5A6.08,6.08,0,0,1,39.78,4.7a15.2,15.2,0,0,1,1.9.15,4.85,4.85,0,0,1,1.82.76,4.13,4.13,0,0,1,1.36,1.66,6.42,6.42,0,0,1,.53,2.66,13.81,13.81,0,0,1-.15,1.81.64.64,0,0,1-.61.53h-8a4.93,4.93,0,0,0,.15,1.07,2.81,2.81,0,0,0,1.74,1.81,4.2,4.2,0,0,0,1.74.23,5.53,5.53,0,0,0,1.6-.23,4.28,4.28,0,0,0,1.13-.6.57.57,0,0,1,.38-.15h.08c.15,0,.3.15.45.3l.76,1.36a.6.6,0,0,1-.15.76,7.2,7.2,0,0,1-2.2,1,7.17,7.17,0,0,1-2.58.45m2.73-8.49V9.7A2.71,2.71,0,0,0,41.91,8a3.14,3.14,0,0,0-2-.68A3.71,3.71,0,0,0,37.59,8a3.26,3.26,0,0,0-.91,1.67v.07Z"/><path class="cls-1" d="M48,22.73a.65.65,0,0,1-.6-.61V5.53a.65.65,0,0,1,.6-.6h1.44a.58.58,0,0,1,.61.45l.15.45a3.15,3.15,0,0,1,1.06-.68,6.71,6.71,0,0,1,2.43-.53,5.7,5.7,0,0,1,4.39,1.59c1,1.06,1.44,2.73,1.44,5a9.23,9.23,0,0,1-.45,2.88,7.11,7.11,0,0,1-1.37,2.28,6,6,0,0,1-2.12,1.44,6.65,6.65,0,0,1-2.73.45,6.23,6.23,0,0,1-1.66-.15c-.16,0-.31-.08-.53-.08v4.09a.66.66,0,0,1-.61.61H48ZM50.77,15a4.29,4.29,0,0,1,.61.31,4.68,4.68,0,0,0,1.44.15,3,3,0,0,0,2.42-1,4.74,4.74,0,0,0,.91-3.18A12.21,12.21,0,0,0,56,9.7a2.67,2.67,0,0,0-.53-1.14,2.42,2.42,0,0,0-.83-.68,2.48,2.48,0,0,0-1.29-.3A2.88,2.88,0,0,0,51.6,8a2.38,2.38,0,0,0-.83,1.52Z"/><path class="cls-1" d="M62.29,18a.65.65,0,0,1-.61-.6h0V5.53a.65.65,0,0,1,.61-.6h1.44a.57.57,0,0,1,.6.45l.08.38a3.93,3.93,0,0,1,.68-.53,4,4,0,0,1,2.12-.53A6.67,6.67,0,0,1,69,4.93a.63.63,0,0,1,.46.75h0L69,7.5a.57.57,0,0,1-.6.46h-.16a4,4,0,0,0-1.36-.23,2,2,0,0,0-1.36.38,1.64,1.64,0,0,0-.61,1v8.26a.66.66,0,0,1-.61.61h0Z"/><path class="cls-1" d="M76.23,18.26a8.74,8.74,0,0,1-2.8-.45,5.45,5.45,0,0,1-2.05-1.44,6.89,6.89,0,0,1-1.21-2.2,11.16,11.16,0,0,1-.38-2.73,7,7,0,0,1,1.67-5,6.35,6.35,0,0,1,4.69-1.82A8.54,8.54,0,0,1,79,5.08a5.2,5.2,0,0,1,2,1.44,6.94,6.94,0,0,1,1.22,2.19,11.64,11.64,0,0,1,.37,2.73,6.67,6.67,0,0,1-1.66,5,5.82,5.82,0,0,1-4.7,1.82m0-10.76c-1.29,0-3,.38-3,3.94A5.38,5.38,0,0,0,73.43,13,3.22,3.22,0,0,0,74,14.24a2.12,2.12,0,0,0,.91.76,2.9,2.9,0,0,0,1.36.31h0a2.71,2.71,0,0,0,2.2-.91,4.8,4.8,0,0,0,.75-3A10.82,10.82,0,0,0,79,9.77a3.36,3.36,0,0,0-.53-1.21,2.27,2.27,0,0,0-.91-.76,4.44,4.44,0,0,0-1.36-.3Z"/><path class="cls-1" d="M85.55,18a.65.65,0,0,1-.61-.6h0V1A.65.65,0,0,1,85.4.38a22,22,0,0,1,2.27-.3A23.07,23.07,0,0,1,90,0,15.09,15.09,0,0,1,92.6.23,9.13,9.13,0,0,1,95,1.06,6,6,0,0,1,96.91,2.8a5.22,5.22,0,0,1,.76,2.88,5.36,5.36,0,0,1-2.5,4.78,7.26,7.26,0,0,1-2.5,1,11.24,11.24,0,0,1-2.8.3H88.28v5.61a.66.66,0,0,1-.61.61h0Zm3.26-9.24h1a13.45,13.45,0,0,0,1.67-.15,4.21,4.21,0,0,0,1.36-.46,2.48,2.48,0,0,0,.91-.91,3.46,3.46,0,0,0,.38-1.59,2.48,2.48,0,0,0-.3-1.29,2.51,2.51,0,0,0-.91-.83,3.54,3.54,0,0,0-1.29-.45A10.69,10.69,0,0,0,90,3H88.28V8.79h.53"/><path class="cls-1" d="M102,18.18a4.4,4.4,0,0,1-1.74-.3,3.71,3.71,0,0,1-1.44-.76,4.74,4.74,0,0,1-1-1.21,4.24,4.24,0,0,1-.37-1.67,3.29,3.29,0,0,1,.6-2,3,3,0,0,1,1.59-1.29,10.62,10.62,0,0,1,2.2-.68,16.67,16.67,0,0,1,2.73-.15h.91V9.47a1.84,1.84,0,0,0-.38-1.36,2.64,2.64,0,0,0-1.67-.38,4,4,0,0,0-.91.07,4.18,4.18,0,0,0-1,.16l-1,.22a3,3,0,0,0-.76.31c-.07.07-.15.07-.3.07h-.23a.76.76,0,0,1-.38-.3L98.2,6.82a.56.56,0,0,1,.31-.76,8.65,8.65,0,0,1,2.5-.83,18.63,18.63,0,0,1,2.88-.3,6.56,6.56,0,0,1,2.42.37,3.72,3.72,0,0,1,1.52,1.06,3.26,3.26,0,0,1,.68,1.44,9.09,9.09,0,0,1,.15,1.44c0,1,0,1.9-.08,2.81s-.07,1.74-.07,2.5a11.57,11.57,0,0,0,.07,1.59,6.25,6.25,0,0,0,.31,1.29.61.61,0,0,1-.46.75h-1.67a.67.67,0,0,1-.6-.37l-.23-.76h0a10.39,10.39,0,0,1-1,.68,3.61,3.61,0,0,1-1.29.45H102m1.74-2.8a4.19,4.19,0,0,0,.91-.38,2,2,0,0,0,.61-.53c.08-.15.23-.3.3-.45V12.58h-1.06a12.09,12.09,0,0,0-1.59.07,7,7,0,0,0-1.29.31,1.7,1.7,0,0,0-.76.53,1,1,0,0,0-.22.68,1.21,1.21,0,0,0,.45,1,2.3,2.3,0,0,0,1.44.46,7.17,7.17,0,0,0,1.21-.23"/><path class="cls-1" d="M112.14,18a.65.65,0,0,1-.6-.6h0V5.53a.65.65,0,0,1,.6-.6h1.44a.58.58,0,0,1,.61.45l.08.38a3.59,3.59,0,0,1,.68-.53,4,4,0,0,1,2.12-.53,6.67,6.67,0,0,1,1.82.23.62.62,0,0,1,.45.75h0l-.45,1.82a.59.59,0,0,1-.61.46h-.15a4,4,0,0,0-1.36-.23,2.05,2.05,0,0,0-1.37.38,1.63,1.63,0,0,0-.6,1v8.26a.66.66,0,0,1-.61.61h0Z"/><path class="cls-1" d="M128.74,18a.55.55,0,0,1-.46-.22L124,12.73h-.3v4.7a.65.65,0,0,1-.61.6H121a.65.65,0,0,1-.61-.6h0V.83a.65.65,0,0,1,.61-.6h2.12a.65.65,0,0,1,.61.6h0v9.25h.07l3.94-4.85a.68.68,0,0,1,.46-.23h2.42a.65.65,0,0,1,.61.61.63.63,0,0,1-.15.38l-3.94,4.69-.08.08-.38.3.61.46a.07.07,0,0,1,.07.07l4.4,5.38a.6.6,0,0,1-.08.84.58.58,0,0,1-.38.15Z"/><path class="cls-1" d="M16.3,8.64A1.74,1.74,0,0,0,18,6.82a1.73,1.73,0,0,0-1.82-1.74A1.77,1.77,0,0,0,14.48,6.9,1.73,1.73,0,0,0,16.3,8.64h0"/><path class="cls-1" d="M16.3,3.79A1.74,1.74,0,0,0,18,2,1.78,1.78,0,1,0,16.3,3.79h0"/><path class="cls-1" d="M16.3,13.49A1.74,1.74,0,0,0,18,11.67a1.78,1.78,0,0,0-3.56.07,1.74,1.74,0,0,0,1.82,1.75"/><path class="cls-1" d="M16.3,18.34a1.78,1.78,0,1,0-.08-3.56,1.78,1.78,0,0,0,.08,3.56h0"/><path class="cls-1" d="M11.45,8.64a1.74,1.74,0,0,0,1.74-1.82,1.78,1.78,0,1,0-1.74,1.82h0"/><path class="cls-1" d="M11.45,13.49a1.74,1.74,0,0,0,1.74-1.82,1.72,1.72,0,0,0-1.82-1.74,1.9,1.9,0,0,0-1.82,1.81,1.85,1.85,0,0,0,1.9,1.75"/><path class="cls-1" d="M11.45,18.34a1.74,1.74,0,0,0,1.74-1.82,1.78,1.78,0,1,0-1.74,1.82h0"/><path class="cls-1" d="M6.6,13.49a1.78,1.78,0,1,0-.08-3.56A1.9,1.9,0,0,0,4.7,11.74a1.85,1.85,0,0,0,1.9,1.75"/><path class="cls-1" d="M6.6,18.34a1.73,1.73,0,0,0,1.74-1.82,1.77,1.77,0,0,0-1.82-1.74,1.78,1.78,0,0,0,.08,3.56h0"/><path class="cls-1" d="M1.82,18.34a1.82,1.82,0,0,0,0-3.64h0A1.85,1.85,0,0,0,0,16.52a1.72,1.72,0,0,0,1.82,1.82h0"/></g></g></g></svg>