<svg xmlns="http://www.w3.org/2000/svg" viewBox="0 0 24 23.91"><defs><style>.cls-1{fill:#283d5b;}</style></defs><title>search</title><g id="Layer_2" data-name="Layer 2"><g id="Orders"><circle class="cls-1" cx="9.61" cy="9.61" r="7.22"/><path class="cls-1" d="M23.57,20.93,20,17.32a1.41,1.41,0,0,0-1.32-.49l-1.32-1.32h0a9.78,9.78,0,0,0,0-11.8A9.76,9.76,0,0,0,3.71,2,9.61,9.61,0,0,0,15.51,17.2l1.32,1.32a1.77,1.77,0,0,0,.49,1.32l3.61,3.61a1.8,1.8,0,0,0,2.4,0A1.73,1.73,0,0,0,23.57,20.93ZM9.61,18A8.37,8.37,0,0,1,1.19,9.61,8.37,8.37,0,0,1,9.61,1.19,8.37,8.37,0,0,1,18,9.61,8.37,8.37,0,0,1,9.61,18Z"/></g></g></svg>