<svg xmlns="http://www.w3.org/2000/svg" viewBox="0 0 24 24"><defs><style>.cls-1{fill:#283d5b;}</style></defs><title>servers</title><g id="Layer_2" data-name="Layer 2"><g id="Orders"><path class="cls-1" d="M21.33,13.33H2.67A2.68,2.68,0,0,0,0,16v5.33A2.68,2.68,0,0,0,2.67,24H21.33A2.68,2.68,0,0,0,24,21.33V16A2.68,2.68,0,0,0,21.33,13.33ZM9.33,20h-4a1.34,1.34,0,0,1,0-2.67h4a1.34,1.34,0,1,1,0,2.67Z"/><path class="cls-1" d="M21.33,0H2.67A2.68,2.68,0,0,0,0,2.67V8a2.68,2.68,0,0,0,2.67,2.67H21.33A2.68,2.68,0,0,0,24,8V2.67A2.68,2.68,0,0,0,21.33,0Zm-12,6.67h-4A1.26,1.26,0,0,1,4,5.33,1.25,1.25,0,0,1,5.33,4h4a1.26,1.26,0,0,1,1.34,1.33A1.27,1.27,0,0,1,9.33,6.67Z"/></g></g></svg>