<svg xmlns="http://www.w3.org/2000/svg" viewBox="0 0 18.27 18.23"><defs><style>.cls-1{fill:#8a919a;}</style></defs><title>settings</title><g id="Layer_2" data-name="Layer 2"><g id="Jobs"><g id="filters"><path class="cls-1" d="M17.07,7.41l-.93-.33a7.68,7.68,0,0,0-.61-1.45l.43-.9A1.77,1.77,0,0,0,15.86,3a1.83,1.83,0,0,0-1.53-.86,1.78,1.78,0,0,0-.78.18l-.91.43a7.55,7.55,0,0,0-1.44-.6l-.33-.93a1.81,1.81,0,0,0-3.42,0l-.32.9a7,7,0,0,0-1.51.61l-.85-.41A1.82,1.82,0,0,0,4,2.13,2,2,0,0,0,2.35,3a1.72,1.72,0,0,0-.12,1.67l.29.82a11,11,0,0,0-.58,1.59l-.75.29A1.77,1.77,0,0,0,0,9.1a1.81,1.81,0,0,0,1.22,1.72l.8.28a6.83,6.83,0,0,0,.68,1.66l-.34.74a1.77,1.77,0,0,0,.09,1.74A1.86,1.86,0,0,0,4,16.1a1.78,1.78,0,0,0,.78-.18l.74-.35a7.41,7.41,0,0,0,1.67.68l.27.78a1.82,1.82,0,0,0,3.42,0l.28-.81a7.07,7.07,0,0,0,1.6-.68l.8.38a1.78,1.78,0,0,0,.78.18h0a1.83,1.83,0,0,0,1.53-.86A1.77,1.77,0,0,0,16,13.5l-.4-.84a6.9,6.9,0,0,0,.61-1.52l.9-.32a1.81,1.81,0,0,0,0-3.41ZM9.14,14a4.76,4.76,0,1,1,4.75-4.76A4.76,4.76,0,0,1,9.14,14Z"/><path class="cls-1" d="M9.14,5.6a3.65,3.65,0,1,0,3.64,3.64A3.65,3.65,0,0,0,9.14,5.6Zm0,6.42a2.78,2.78,0,1,1,2.77-2.78A2.78,2.78,0,0,1,9.14,12Z"/></g></g></g></svg>