<svg xmlns="http://www.w3.org/2000/svg" viewBox="0 0 17.67 17.34"><defs><style>.cls-1{fill:#8a919a;}</style></defs><title>tableSort</title><g id="Layer_2" data-name="Layer 2"><g id="ServerList"><path class="cls-1" d="M.58.82H17.1a.41.41,0,1,0,0-.82H.58A.41.41,0,0,0,.17.41.41.41,0,0,0,.58.82Z"/><path class="cls-1" d="M17.26,5.5H.41A.41.41,0,0,0,0,5.91a.41.41,0,0,0,.41.41H17.26a.41.41,0,0,0,.41-.41A.41.41,0,0,0,17.26,5.5Z"/><path class="cls-1" d="M17.26,11H.41a.41.41,0,0,0,0,.82H17.26a.41.41,0,1,0,0-.82Z"/><path class="cls-1" d="M17.1,16.52H.58a.41.41,0,0,0-.41.41.41.41,0,0,0,.41.41H17.1a.42.42,0,0,0,.41-.41A.41.41,0,0,0,17.1,16.52Z"/></g></g></svg>