<svg xmlns="http://www.w3.org/2000/svg" viewBox="0 0 20.1 17"><defs><style>.cls-1{fill:#cce5ff;}</style></defs><title>ticket</title><g id="Layer_2" data-name="Layer 2"><g id="Orders"><path class="cls-1" d="M0,6.2v8.3A2.5,2.5,0,0,0,2.6,17V3.7A2.63,2.63,0,0,0,0,6.2Z"/><path class="cls-1" d="M17.5,3.7V17a2.56,2.56,0,0,0,2.6-2.5V6.2A2.7,2.7,0,0,0,17.5,3.7Z"/><path class="cls-1" d="M13.8,1.4A1.39,1.39,0,0,0,12.3,0H7.7A1.45,1.45,0,0,0,6.2,1.4V3.7H3.8V17H16.3V3.7H13.8ZM12.5,3.7h-5V1.3h5Z"/></g></g></svg>