<?xml version="1.0" encoding="utf-8"?>
<!-- Generator: Adobe Illustrator 23.0.4, SVG Export Plug-In . SVG Version: 6.00 Build 0)  -->
<svg version="1.1" id="Слой_1" xmlns="http://www.w3.org/2000/svg" xmlns:xlink="http://www.w3.org/1999/xlink" x="0px" y="0px"
	 viewBox="0 0 219.5 219.5" style="enable-background:new 0 0 219.5 219.5;" xml:space="preserve">
<style type="text/css">
	.st0{fill:#FFFFFF;}
</style>
<g>
	<path class="st0" d="M174.1,0H45.4C20.3,0,0,20.3,0,45.4v128.7c0,25.1,20.3,45.4,45.4,45.4h128.7c25.1,0,45.4-20.3,45.4-45.4V45.4
		C219.5,20.3,199.2,0,174.1,0z M184.1,142.6c0,16.7-15.4,30.3-34.3,30.3s-34.3-13.6-34.3-30.3s15.4-30.3,34.3-30.3
		c8,0,15.6,2.4,21.7,6.8V76.1L91.8,86.5v83c0,16.7-15.4,30.3-34.3,30.3s-34.3-13.6-34.3-30.3s15.4-30.3,34.3-30.3
		c8,0,15.6,2.4,21.7,6.8V51c0-3.1,2.2-5.7,5.3-6.3c0,0,92.4-12,92.4-12c0.3,0,0.5,0,0.7,0c1.5,0,2.9,0.5,4.1,1.4
		c0.1,0,0.1,0.1,0.2,0.1c1.4,1.2,2.2,2.9,2.2,4.7V142.6z"/>
</g>
</svg>
