<?xml version="1.0" encoding="utf-8"?>
<!-- Generator: Adobe Illustrator 23.0.4, SVG Export Plug-In . SVG Version: 6.00 Build 0)  -->
<svg version="1.1" id="Capa_1" xmlns="http://www.w3.org/2000/svg" xmlns:xlink="http://www.w3.org/1999/xlink" x="0px" y="0px"
	 viewBox="0 0 477.9 477.9" style="enable-background:new 0 0 477.9 477.9;" xml:space="preserve">
<style type="text/css">
	.st0{fill:#FFFFFF;}
</style>
<g>
	<g>
		<path class="st0" d="M460.8,119.5h-85.3V17.1c0-9.4-7.6-17.1-17.1-17.1H17.1C7.6,0,0,7.6,0,17.1v392.5c0,37.7,30.6,68.3,68.3,68.3
			h341.3c37.7,0,68.3-30.6,68.3-68.3V136.5C477.9,127.1,470.2,119.5,460.8,119.5z M136.5,85.3h102.4c9.4,0,17.1,7.6,17.1,17.1
			s-7.6,17.1-17.1,17.1H136.5c-9.4,0-17.1-7.6-17.1-17.1S127.1,85.3,136.5,85.3z M290.1,409.6H85.3c-9.4,0-17.1-7.6-17.1-17.1
			s7.6-17.1,17.1-17.1h204.8c9.4,0,17.1,7.6,17.1,17.1S299.6,409.6,290.1,409.6z M290.1,341.3H85.3c-9.4,0-17.1-7.6-17.1-17.1
			s7.6-17.1,17.1-17.1h204.8c9.4,0,17.1,7.6,17.1,17.1C307.2,333.7,299.6,341.3,290.1,341.3z M290.1,273.1H85.3
			c-9.4,0-17.1-7.6-17.1-17.1c0-9.4,7.6-17.1,17.1-17.1h204.8c9.4,0,17.1,7.6,17.1,17.1C307.2,265.4,299.6,273.1,290.1,273.1z
			 M290.1,204.8H85.3c-9.4,0-17.1-7.6-17.1-17.1s7.6-17.1,17.1-17.1h204.8c9.4,0,17.1,7.6,17.1,17.1
			C307.2,197.2,299.6,204.8,290.1,204.8z M443.7,409.6c0,18.9-15.3,34.1-34.1,34.1s-34.1-15.3-34.1-34.1v-256h68.3L443.7,409.6
			L443.7,409.6z"/>
	</g>
</g>
</svg>
