<?xml version="1.0" encoding="utf-8"?>
<!-- Generator: Adobe Illustrator 23.0.4, SVG Export Plug-In . SVG Version: 6.00 Build 0)  -->
<svg version="1.1" id="Слой_2" xmlns="http://www.w3.org/2000/svg" xmlns:xlink="http://www.w3.org/1999/xlink" x="0px" y="0px"
	 viewBox="0 0 477.9 477.9" style="enable-background:new 0 0 477.9 477.9;" xml:space="preserve">
<style type="text/css">
	.st0{fill:#FFFFFF;}
</style>
<path class="st0" d="M456.1,259.5h-17c-5.8,0-10.9-3.6-12.8-9c-1.6-4.6-3.5-9-5.5-13.3c-2.5-5.2-1.4-11.4,2.7-15.5l12-12
	c8.4-8.4,8.4-22.1,0-30.6l-21.7-21.7c-8.4-8.4-22.1-8.4-30.6,0l-12,12c-4.1,4.1-10.3,5.1-15.5,2.7c-4.3-2.1-8.8-3.9-13.3-5.5
	c-5.4-1.9-9-7.1-9-12.8v-17c0-11.9-9.7-21.6-21.6-21.6H281c-11.9,0-21.6,9.7-21.6,21.6v17c0,5.8-3.6,10.9-9,12.8
	c-4.6,1.6-9,3.5-13.3,5.5c-5.2,2.5-11.4,1.4-15.5-2.7l-12-12c-8.4-8.4-22.1-8.4-30.6,0L157.2,179c-8.4,8.4-8.4,22.1,0,30.6l12,12
	c4.1,4.1,5.1,10.3,2.7,15.5c-2.1,4.3-3.9,8.8-5.5,13.3c-1.9,5.4-7.1,9-12.8,9h-17c-11.9,0-21.6,9.7-21.6,21.6v30.7
	c0,11.9,9.7,21.6,21.6,21.6h17c5.8,0,10.9,3.6,12.8,9c1.6,4.6,3.5,9,5.5,13.3c2.5,5.2,1.4,11.4-2.7,15.5l-12,12
	c-8.4,8.4-8.4,22.1,0,30.6l21.7,21.7c8.4,8.4,22.1,8.4,30.6,0l12-12c4.1-4.1,10.3-5.1,15.5-2.7c4.3,2.1,8.8,3.9,13.3,5.5
	c5.4,1.9,9,7.1,9,12.8v17c0,11.9,9.7,21.6,21.6,21.6h30.7c11.9,0,21.6-9.7,21.6-21.6v-17c0-5.8,3.6-10.9,9-12.8
	c4.6-1.6,9-3.5,13.3-5.5c5.2-2.5,11.4-1.4,15.5,2.7l12,12c8.4,8.4,22.1,8.4,30.6,0l21.7-21.7c8.4-8.4,8.4-22.1,0-30.6l-12-12
	c-4.1-4.1-5.1-10.3-2.7-15.5c2.1-4.3,3.9-8.8,5.5-13.3c1.9-5.4,7.1-9,12.8-9h17c11.9,0,21.6-9.7,21.6-21.6v-30.7
	C477.8,269.1,468.1,259.5,456.1,259.5z M296.3,362.2c-36.3,0-65.8-29.4-65.8-65.8s29.4-65.8,65.8-65.8s65.8,29.4,65.8,65.8
	S332.6,362.2,296.3,362.2z"/>
<path class="st0" d="M175,74.1h-8.7c-3,0-5.6-1.9-6.6-4.6c-0.8-2.3-1.8-4.6-2.8-6.8c-1.3-2.7-0.7-5.8,1.4-7.9l6.2-6.2
	c4.3-4.3,4.3-11.3,0-15.7l-11.1-11.1c-4.3-4.3-11.3-4.3-15.7,0l-6.2,6.2c-2.1,2.1-5.3,2.6-7.9,1.4c-2.2-1.1-4.5-2-6.8-2.8
	c-2.8-1-4.6-3.6-4.6-6.6v-8.7C112,5,107,0,100.9,0H85.2C79,0,74.1,5,74.1,11.1v8.7c0,3-1.9,5.6-4.6,6.6c-2.3,0.8-4.6,1.8-6.8,2.8
	c-2.7,1.3-5.8,0.7-7.9-1.4l-6.2-6.2c-4.3-4.3-11.3-4.3-15.7,0L21.7,32.8c-4.3,4.3-4.3,11.3,0,15.7l6.2,6.2c2.1,2.1,2.6,5.3,1.4,7.9
	c-1.1,2.2-2,4.5-2.8,6.8c-1,2.8-3.6,4.6-6.6,4.6h-8.7C5,74.1,0,79,0,85.2v15.8C0,107,5,112,11.1,112h8.7c3,0,5.6,1.9,6.6,4.6
	c0.8,2.3,1.8,4.6,2.8,6.8c1.3,2.7,0.7,5.8-1.4,7.9l-6.2,6.2c-4.3,4.3-4.3,11.3,0,15.7l11.1,11.1c4.3,4.3,11.3,4.3,15.7,0l6.2-6.2
	c2.1-2.1,5.3-2.6,7.9-1.4c2.2,1.1,4.5,2,6.8,2.8c2.8,1,4.6,3.6,4.6,6.6v8.7c0,6.1,5,11.1,11.1,11.1h15.8c6.1,0,11.1-5,11.1-11.1
	v-8.7c0-3,1.9-5.6,4.6-6.6c2.3-0.8,4.6-1.8,6.8-2.8c2.7-1.3,5.8-0.7,7.9,1.4l6.2,6.2c4.3,4.3,11.3,4.3,15.7,0l11.1-11.1
	c4.3-4.3,4.3-11.3,0-15.7l-6.2-6.2c-2.1-2.1-2.6-5.3-1.4-7.9c1.1-2.2,2-4.5,2.8-6.8c1-2.8,3.6-4.6,6.6-4.6h8.7
	c6.1,0,11.1-5,11.1-11.1V85.2C186.1,79,181.1,74.1,175,74.1z M93,126.8c-18.6,0-33.7-15.1-33.7-33.7S74.4,59.3,93,59.3
	s33.7,15.1,33.7,33.7S111.7,126.8,93,126.8z"/>
</svg>
