<?xml version="1.0" encoding="utf-8"?>
<!-- Generator: Adobe Illustrator 24.0.1, SVG Export Plug-In . SVG Version: 6.00 Build 0)  -->
<svg version="1.1" id="Слой_1" xmlns="http://www.w3.org/2000/svg" xmlns:xlink="http://www.w3.org/1999/xlink" x="0px" y="0px"
	 viewBox="0 0 219.5 219.5" style="enable-background:new 0 0 219.5 219.5;" xml:space="preserve">
<style type="text/css">
	.st0{fill:#FFFFFF;}
	.st1{fill-rule:evenodd;clip-rule:evenodd;}
</style>
<path class="st0" d="M174.1,219.5H45.4C20.3,219.5,0,199.2,0,174.1V45.4C0,20.3,20.3,0,45.4,0h128.7c25.1,0,45.4,20.3,45.4,45.4
	v128.7C219.5,199.2,199.2,219.5,174.1,219.5z"/>
<g id="Page-1">
	<path id="Users" class="st1" d="M127,101.1c14.8,0,26.7,12,26.7,26.7c0,0.6,0,1.2-0.1,1.7c0,0.3,0.1,0.6,0.1,0.8v52.7
		c0,3.4-2.8,6.2-6.2,6.2H71.7c-3.4,0-6.2-2.8-6.2-6.2v-52.7c0-0.3,0-0.6,0.1-0.8c0-0.6-0.1-1.1-0.1-1.7c0-14.8,12-26.7,26.7-26.7
		H127z M58.1,115.8c-1.8,3.6-2.9,7.7-2.9,12.1c0,0.6,0,1.2,0.1,1.7c0,0.2,0,0.4-0.1,0.6l0,0.2v52.7c0,3.4,2.7,6.2,6.1,6.2l0.1,0
		H30.6c-8.1,0-14.7-6.6-14.7-14.7v-32.2c0-14.6,11.7-26.5,26.3-26.7l0.4,0H58.1z M176.8,115.8c14.8,0,26.7,12,26.7,26.7v32.2
		c0,8.1-6.6,14.7-14.7,14.7h-30.8c3.4,0,6.2-2.7,6.2-6.1l0-0.1v-52.7c0-0.3,0-0.6-0.1-0.8c0-0.6,0.1-1.1,0.1-1.7
		c0-4.4-1-8.5-2.9-12.1H176.8z M52.1,59.4c13.9,0,25.1,11.2,25.1,25.1c0,13.9-11.2,25.1-25.1,25.1S27,98.3,27,84.5
		C27,70.6,38.2,59.4,52.1,59.4z M167.4,59.4c13.9,0,25.1,11.2,25.1,25.1c0,13.9-11.2,25.1-25.1,25.1s-25.1-11.2-25.1-25.1
		C142.4,70.6,153.6,59.4,167.4,59.4z M109.8,30.1c18,0,32.6,14.6,32.6,32.6s-14.6,32.6-32.6,32.6S77.1,80.7,77.1,62.7
		S91.7,30.1,109.8,30.1z"/>
</g>
</svg>
