<?xml version="1.0" encoding="utf-8"?>
<!-- Generator: Adobe Illustrator 23.0.6, SVG Export Plug-In . SVG Version: 6.00 Build 0)  -->
<svg version="1.1" id="Слой_2" xmlns="http://www.w3.org/2000/svg" xmlns:xlink="http://www.w3.org/1999/xlink" x="0px" y="0px"
	 viewBox="0 0 48 48" style="enable-background:new 0 0 48 48;" xml:space="preserve">
<style type="text/css">
	.st0{fill:#FFC61B;}
	.st1{fill:#D48B07;}
	.st2{fill:#FCD088;}
	.st3{fill:#DDAB62;}
	.st4{fill:#FFFFFF;}
	.st5{fill:#E0E2E2;}
	.st6{fill:#71E2EF;}
	.st7{fill:#FFEDB5;}
	.st8{fill:#AFAFAF;}
	.st9{fill:#38C6D9;}
	.st10{fill:#E8CF89;}
	.st11{fill:#333333;}
	.st12{fill:#494948;}
	.st13{fill:#2BA8B2;}
</style>
<circle class="st0" cx="24" cy="24" r="24"/>
<path class="st1" d="M47.9,25.8L33.4,11.3l-8.8,10.2v18.8c0,0,4.6,3.8,7.8,6.2C41,43.3,47.2,35.3,47.9,25.8z"/>
<rect x="20" y="26.9" class="st2" width="4" height="7.2"/>
<rect x="24" y="26.9" class="st3" width="4" height="7.2"/>
<path class="st4" d="M19.6,33c0,0-3.8,0.8-5.3,1.1c-1.6,0.4-3.5,1.7-3.5,4.8c0,1.9,0,3.8,0,5c3.8,2.5,8.4,4,13.3,4V35.5L19.6,33z"/>
<path class="st5" d="M24,44.9c0,0-4.9-4.7-5.4-5.2s-1.4-1.1-0.7-1.6c0.7-0.4,0.8-0.5,1-0.6c0.3-0.2,0.4-0.6-0.1-1
	c-0.5-0.4-1.1-0.9-1.3-1.1c-0.2-0.2-0.2-0.5,0-0.8c0.2-0.4,1.1-1.5,1.1-1.5l0.9-0.2l1.4,1.1l2.7,6.7L24,44.9z"/>
<path class="st6" d="M24,44.9l-5.3-11.8c0,0,0.6-0.9,0.8-1.1c0.2-0.3,0.3-0.4,0.8-0.2c0.4,0.2,3.8,1.6,3.8,1.6V44.9z"/>
<path class="st7" d="M24,29.9c0,0-1.7,0.1-3.6-1.3c-1.9-1.4-3.1-3.6-3.6-4.4c-0.3,0.3-0.9,0.2-1.3-0.2c-0.4-0.4-1.2-1.3-1.2-2.5
	c0-1.2,0.4-2,1-2.2c0.2-0.9,0.5-3.5,0.5-3.5l2.3-1.2H24V29.9z"/>
<path class="st5" d="M28.4,33c0,0,3.8,0.8,5.3,1.1c1.6,0.4,3.5,1.7,3.5,4.8c0,1.9,0,3.8,0,5c-3.8,2.5-8.4,4-13.3,4V35.5L28.4,33z"/>
<path class="st8" d="M24,44.9c0,0,4.9-4.7,5.4-5.2s1.4-1.1,0.7-1.6c-0.7-0.4-0.8-0.5-1-0.6s-0.4-0.6,0.1-1c0.5-0.4,1.1-0.9,1.3-1.1
	c0.2-0.2,0.2-0.5,0-0.8c-0.2-0.4-1.1-1.5-1.1-1.5L28.4,33l-1.4,1.1l-2.7,6.7L24,44.9z"/>
<path class="st9" d="M24,44.9l5.3-11.8c0,0-0.6-0.9-0.8-1.1c-0.2-0.3-0.3-0.4-0.8-0.2S24,33.5,24,33.5V44.9z"/>
<path class="st10" d="M24,29.9c0,0,1.7,0.1,3.6-1.3c1.9-1.4,3.1-3.6,3.6-4.4c0.3,0.3,0.9,0.2,1.3-0.2c0.4-0.4,1.2-1.3,1.2-2.5
	c0-1.2-0.4-2-1-2.2c-0.2-0.9-0.5-3.5-0.5-3.5l-2.3-1.2H24V29.9z"/>
<path class="st11" d="M33.4,11.3c-0.6-0.2-2.8-1-4-1.6C28.2,9.2,27,8.4,26,8.2c-0.7-0.2-1.3-0.3-2-0.4v10.5c0.8,0.1,1.5,0.2,2.2,0.2
	c1.4,0.1,3.7-0.2,4.4-0.2c0.7,0,1.2,0.2,2,0.9c0.6-0.7,1.1-2.2,1.2-4.2C33.9,13.2,33.6,12.3,33.4,11.3z"/>
<path class="st12" d="M22.8,7.8c-1.4,0.1-2.5,1-2.9,2.2c-0.9,0-2.1,0-3.2,1c-1.1,1-1.5,2.6-1.6,4.7c-0.2,2.1,0.3,3.6,0.3,3.6
	c1.2-2.6,2.4-3.5,3-3.5c0.6,0,1.7,1,3.2,1.7c0.8,0.4,1.6,0.6,2.4,0.8V7.8C23.6,7.8,23.2,7.8,22.8,7.8z"/>
<polygon class="st9" points="24,44.9 20.5,37.1 24,33.6 "/>
<polygon class="st13" points="23.9,44.9 27.5,37.1 24,33.6 "/>
</svg>
