<svg xmlns="http://www.w3.org/2000/svg" viewBox="0 0 446.36 446.36"><g data-name="Слой 2"><g data-name="Слой 1"><rect width="446.36" height="446.36" rx="99.96" style="fill:#ce1312"/><path d="M384.42 156.92s-3.22-22.84-13.08-32.92c-12.52-13.21-26.54-13.27-33-14-46.05-3.36-115.12-3.36-115.12-3.36h-.14S154 106.64 108 110c-6.44.76-20.45.82-33 14-9.86 10.05-13.07 32.89-13.07 32.89a504.83 504.83 0 0 0-3.29 53.63v25.14a504.65 504.65 0 0 0 3.29 53.64s3.22 22.86 13.07 32.92c12.53 13.2 29 12.79 36.29 14.17 26.33 2.54 111.88 3.33 111.88 3.33s69.14-.1 115.19-3.46c6.43-.77 20.45-.84 33-14 9.86-10.06 13.08-32.89 13.08-32.89a504.65 504.65 0 0 0 3.29-53.64v-25.18a504.83 504.83 0 0 0-3.31-53.63zM189.21 266.16v-93.11l88.91 46.72z" style="fill:#fff"/></g></g></svg>