<svg style="enable-background:new 0 0 64 64" viewBox="0 0 64 64" xml:space="preserve" xmlns="http://www.w3.org/2000/svg"><style>.st2{fill:#fff}</style><g id="ig"><radialGradient cx="6.5" cy="62.5" fx="3.168" fy="60.781" gradientTransform="matrix(.9116 -.411 .3329 .7384 -20.233 19.02)" gradientUnits="userSpaceOnUse" id="SVGID_1_" r="93.512"><stop offset="0" style="stop-color:#f9ed32"/><stop offset=".256" style="stop-color:#f59f4f"/><stop offset=".653" style="stop-color:#ee2a7b"/><stop offset=".685" style="stop-color:#e32a81"/><stop offset=".739" style="stop-color:#c72a91"/><stop offset=".811" style="stop-color:#982aab"/><stop offset=".896" style="stop-color:#582ace"/><stop offset=".992" style="stop-color:#072afb"/><stop offset="1" style="stop-color:#002aff"/></radialGradient><path d="M50 62H14C7.4 62 2 56.6 2 50V14C2 7.4 7.4 2 14 2h36c6.6 0 12 5.4 12 12v36c0 6.6-5.4 12-12 12z" style="fill:url(#SVGID_1_)"/><path class="st2" d="M40 53H24c-7.2 0-13-5.8-13-13V24c0-7.2 5.8-13 13-13h16c7.2 0 13 5.8 13 13v16c0 7.2-5.8 13-13 13zM24 13c-6.1 0-11 4.9-11 11v16c0 6.1 4.9 11 11 11h16c6.1 0 11-4.9 11-11V24c0-6.1-4.9-11-11-11H24z"/><path class="st2" d="M32 43c-6.1 0-11-4.9-11-11s4.9-11 11-11 11 4.9 11 11-4.9 11-11 11zm0-20c-5 0-9 4-9 9s4 9 9 9 9-4 9-9-4-9-9-9zM44 23c-1.7 0-3-1.3-3-3s1.3-3 3-3 3 1.3 3 3-1.3 3-3 3zm0-4c-.6 0-1 .4-1 1s.4 1 1 1 1-.4 1-1-.4-1-1-1z"/></g></svg>